HIERARCHY
ROOT Hips
{
     OFFSET -0.50652 97.01800 -6.33344
     CHANNELS 6 Xposition Yposition Zposition Zrotation Xrotation Yrotation
     JOINT Spine
     {
          OFFSET 0.00000 11.89050 0.00000
          CHANNELS 3 Zrotation Xrotation Yrotation
          JOINT Spine1
          {
               OFFSET -0.00000 25.65740 0.12766
               CHANNELS 3 Zrotation Xrotation Yrotation
               JOINT HEad
               {
                    OFFSET 0.00000 8.73416 0.01134
                    CHANNELS 3 Zrotation Xrotation Yrotation
                    End Site
                    {
                         OFFSET -0.29000 12.77420 2.51395
                    }
               }
               JOINT LeftShoulder1
               {
                    OFFSET 8.99000 -0.36225 -0.22000
                    CHANNELS 3 Zrotation Xrotation Yrotation
                    JOINT LeftArm
                    {
                         OFFSET 10.28270 -0.00338 0.32212
                         CHANNELS 3 Zrotation Xrotation Yrotation
                         JOINT LeftForeArm
                         {
                              OFFSET 32.76690 0.09914 -1.42434
                              CHANNELS 3 Zrotation Xrotation Yrotation
                              JOINT LeftHand
                              {
                                   OFFSET 27.56430 0.08536 1.02216
                                   CHANNELS 3 Zrotation Xrotation Yrotation
                                   End Site
                                   {
                                        OFFSET 16.74430 -0.60000 1.50291
                                   }
                              }
                         }
                    }
               }
               JOINT RightShoulder
               {
                    OFFSET -8.99000 -0.36225 -0.22000
                    CHANNELS 3 Zrotation Xrotation Yrotation
                    JOINT RightArm
                    {
                         OFFSET -10.28270 -0.00338 0.32212
                         CHANNELS 3 Zrotation Xrotation Yrotation
                         JOINT RightForeArm
                         {
                              OFFSET -32.89710 0.09914 -1.42434
                              CHANNELS 3 Zrotation Xrotation Yrotation
                              JOINT RightHand
                              {
                                   OFFSET -27.49210 0.08536 1.02216
                                   CHANNELS 3 Zrotation Xrotation Yrotation
                                   End Site
                                   {
                                        OFFSET -16.63120 -0.60000 1.50291
                                   }
                              }
                         }
                    }
               }
          }
     }
     JOINT LeftUpLeg
     {
          OFFSET 8.94580 -8.66707 0.10165
          CHANNELS 3 Zrotation Xrotation Yrotation
          JOINT LeftLeg
          {
               OFFSET -0.00000 -44.42270 1.37270
               CHANNELS 3 Zrotation Xrotation Yrotation
               JOINT LeftFoot
               {
                    OFFSET -0.25355 -42.09240 -1.46059
                    CHANNELS 3 Zrotation Xrotation Yrotation
                    JOINT LeftToes
                    {
                         OFFSET -0.04000 -4.41509 8.49910
                         CHANNELS 3 Zrotation Xrotation Yrotation
                         End Site
                         {
                              OFFSET 0.08000 -0.04745 9.77979
                         }
                    }
               }
          }
     }
     JOINT RightUpLeg
     {
          OFFSET -8.94580 -8.66707 0.10165
          CHANNELS 3 Zrotation Xrotation Yrotation
          JOINT RightLeg
          {
               OFFSET 0.00000 -44.42270 1.37270
               CHANNELS 3 Zrotation Xrotation Yrotation
               JOINT RightFoot
               {
                    OFFSET 0.25355 -42.09240 -1.46059
                    CHANNELS 3 Zrotation Xrotation Yrotation
                    JOINT RightToes
                    {
                         OFFSET 0.04000 -4.41509 8.49910
                         CHANNELS 3 Zrotation Xrotation Yrotation
                         End Site
                         {
                              OFFSET -0.08000 -0.13745 9.77979
                         }
                    }
               }
          }
     }
}
MOTION
Frames: 8
Frame Time: 0.01667
-8.03337 83.97010 -21.42950 1.51619 -4.41453 -38.61580 -4.75375 8.26396 4.49180 -6.06481 15.71930 7.94557 -0.25525 -8.37015 33.43380 -0.00000 -0.00000 0.00000 -89.37030 -44.68550 -95.22850 -17.53390 27.67650 -75.98690 5.55594 9.67997 -0.87718 8.75479 0.74320 3.21689 53.54410 -13.04730 85.81560 8.35998 15.00990 81.97070 -5.55712 9.68432 0.87760 21.59400 -33.43180 9.37010 8.14355 46.64330 -37.29370 -23.14790 -14.73570 -1.40080 1.41143 -13.19490 -9.25745 -21.03730 -11.47080 -1.39872 13.17330 84.83980 -19.69560 9.52270 -35.35650 2.08908 8.85392 11.05580 -1.16793 
-8.84326 83.83480 -22.89430 0.87800 -4.37304 -38.69150 -4.43573 8.26177 4.49877 -5.88453 15.72750 7.85209 1.07513 -9.36044 34.55340 -0.00000 -0.00000 0.00000 -82.17610 -45.97800 -88.79300 -16.22540 24.68180 -74.88000 5.55594 9.67997 -0.87718 8.23755 0.67977 2.86813 50.27460 -13.10750 85.17910 7.73983 13.34820 81.05580 -5.55712 9.68432 0.87760 23.75250 -32.36120 9.44204 6.19142 44.70660 -36.08550 -23.18540 -13.40710 -1.13182 1.34616 -14.06660 -9.08080 -22.46450 -10.31620 -1.58668 19.41130 86.33550 -26.48120 9.52380 -34.00740 1.97145 9.34188 11.33750 -1.68533 
-9.67619 83.97930 -24.49630 0.08017 -4.27140 -39.17810 -3.93352 8.17189 4.51955 -5.62538 15.61090 7.86492 2.30338 -9.69295 35.96650 -0.00000 -0.00000 0.00000 -75.07520 -47.67610 -81.78700 -15.25270 22.29610 -73.84990 5.55594 9.67997 -0.87718 7.34276 0.59730 2.44648 47.20160 -12.97640 85.02820 7.06169 11.57060 80.08550 -5.55712 9.68432 0.87760 25.90470 -30.52430 9.01084 4.15949 41.60010 -34.07220 -23.34840 -11.29190 -0.70746 1.25526 -15.58820 -8.95784 -23.83370 -9.15008 -1.62631 25.85930 87.18860 -33.61450 9.52429 -32.21550 1.81658 9.71040 11.43660 -2.21192 
-10.52790 84.43140 -26.22430 -0.85084 -4.04462 -40.13970 -3.21490 7.95362 4.55728 -5.26491 15.29940 8.00173 3.25523 -9.20918 37.48360 -0.00000 -0.00000 0.00000 -68.67860 -50.00200 -74.49570 -14.78370 21.05370 -73.25740 5.55594 9.67997 -0.87718 6.04746 0.50601 2.00342 44.43670 -12.57600 85.46840 6.29521 9.64466 79.09030 -5.55712 9.68432 0.87760 27.93210 -27.86740 7.93889 2.38608 37.15520 -31.18130 -23.72560 -8.28923 -0.09945 1.13740 -17.59180 -8.76726 -25.16330 -8.09415 -1.49277 29.29030 87.23380 -37.72670 9.51860 -29.96110 1.62286 9.88194 11.35040 -2.61968 
-11.40770 85.17080 -28.03850 -1.82203 -3.62858 -41.53980 -2.33069 7.58251 4.61323 -4.78045 14.72530 8.26232 3.75436 -7.86779 38.91590 -0.00000 -0.00000 0.00000 -63.28670 -53.12020 -67.19760 -14.86920 21.16190 -73.35140 5.55594 9.67997 -0.87718 4.34127 0.41472 1.58345 42.11300 -11.91790 86.51630 5.44064 7.60402 78.12410 -5.55712 9.68432 0.87760 29.71500 -24.45070 6.21888 1.20427 31.35920 -27.32690 -24.37060 -4.42318 0.71217 1.01021 -19.58700 -8.29977 -26.50750 -7.21217 -1.18641 28.13580 86.28280 -37.04580 9.50777 -27.27560 1.39501 9.65978 10.93840 -2.74568 
-12.32430 86.10160 -29.87500 -2.71636 -2.95710 -43.25460 -1.28199 7.04091 4.69736 -4.14259 13.84090 8.63041 3.68272 -5.76176 40.13370 -0.00000 -0.00000 0.00000 -58.83280 -56.96110 -60.17140 -15.40700 22.39940 -74.13900 5.55594 9.67997 -0.87718 2.25143 0.32945 1.21461 40.36810 -11.09010 88.07940 4.52737 5.54224 77.26140 -5.55712 9.68432 0.87760 31.23810 -20.53470 4.05355 0.79662 24.56560 -22.40170 -25.23240 0.10323 1.72058 0.90782 -20.84860 -7.31282 -27.90840 -6.50832 -0.73897 25.70390 84.16410 -34.61900 9.51855 -24.28240 1.14903 8.82711 9.99727 -2.46295 
-13.28190 87.09020 -31.73010 -3.42159 -2.00005 -45.03580 -0.03150 6.31822 4.77704 -3.33692 12.63870 9.07587 3.02510 -3.10382 41.09080 -0.00000 -0.00000 0.00000 -55.19900 -61.17040 -53.85820 -16.19220 24.25780 -75.38240 5.55594 9.67997 -0.87718 -0.11122 0.25418 0.90799 39.30640 -10.21640 89.97140 3.61058 3.59519 76.57600 -5.55712 9.68432 0.87760 32.60870 -16.59660 1.85488 1.03635 17.43710 -16.37610 -26.14980 4.99910 2.88376 0.84085 -20.57260 -5.63466 -29.30420 -5.94633 -0.22171 23.88560 80.83140 -32.16250 9.63824 -21.16940 0.90971 7.29366 8.40659 -1.74180 
-14.27090 88.00490 -33.56990 -3.77692 -0.89987 -46.66000 1.27896 5.47636 4.89301 -2.42400 11.19530 9.55472 1.87684 -0.19218 41.80930 -0.00000 -0.00000 0.00000 -52.74130 -65.25850 -49.14720 -17.01700 26.20090 -76.70990 5.55594 9.67997 -0.87718 -2.52219 0.19193 0.65998 38.95630 -9.41096 91.96090 2.76650 1.91628 76.11710 -5.55712 9.68432 0.87760 33.81250 -13.44270 0.10437 1.44428 11.45760 -9.39136 -26.72880 9.56717 3.99679 0.73772 -18.12270 -3.34454 -30.71310 -5.42987 0.45753 22.43270 76.29340 -29.37280 10.05890 -18.05440 0.69501 5.11383 6.17017 -0.62785 
